<svg width="78" height="79" viewBox="0 0 78 79" fill="none" xmlns="http://www.w3.org/2000/svg">
<path d="M39 0.5C31.2865 0.5 23.7463 2.78731 17.3328 7.07269C10.9192 11.3581 5.92052 17.449 2.9687 24.5753C0.0168827 31.7017 -0.755447 39.5433 0.749376 47.1085C2.2542 54.6738 5.96859 61.6229 11.4228 67.0772C16.8771 72.5314 23.8262 76.2458 31.3915 77.7506C38.9567 79.2554 46.7983 78.4831 53.9247 75.5313C61.051 72.5795 67.1419 67.5807 71.4273 61.1672C75.7127 54.7537 78 47.2135 78 39.5C77.9891 29.1599 73.8767 19.2464 66.5651 11.9349C59.2535 4.62334 49.3401 0.510919 39 0.5ZM39 72.5C32.4732 72.5 26.093 70.5646 20.6662 66.9385C15.2394 63.3124 11.0097 58.1585 8.51198 52.1286C6.01429 46.0986 5.36077 39.4634 6.63409 33.062C7.9074 26.6606 11.0503 20.7806 15.6655 16.1655C20.2806 11.5503 26.1607 8.4074 32.562 7.13409C38.9634 5.86077 45.5986 6.51428 51.6286 9.01198C57.6585 11.5097 62.8124 15.7394 66.4385 21.1662C70.0646 26.593 72 32.9732 72 39.5C71.9901 48.2491 68.5101 56.637 62.3236 62.8236C56.137 69.0101 47.7491 72.4901 39 72.5ZM52.665 37.0025L34.665 25.0025C34.2131 24.701 33.6878 24.5279 33.1452 24.5016C32.6026 24.4753 32.063 24.5968 31.584 24.8532C31.1051 25.1096 30.7048 25.4913 30.4258 25.9574C30.1468 26.4236 29.9996 26.9567 30 27.5V51.5C29.9996 52.0433 30.1468 52.5764 30.4258 53.0426C30.7048 53.5087 31.1051 53.8904 31.584 54.1468C32.063 54.4032 32.6026 54.5247 33.1452 54.4984C33.6878 54.4721 34.2131 54.299 34.665 53.9975L52.665 41.9975C53.0765 41.7236 53.414 41.3524 53.6474 40.9166C53.8808 40.4809 54.0029 39.9943 54.0029 39.5C54.0029 39.0057 53.8808 38.5191 53.6474 38.0834C53.414 37.6476 53.0765 37.2764 52.665 37.0025Z" fill="white"/>
</svg>
